<svg width="40" height="40" viewBox="0 0 40 40" fill="none" xmlns="http://www.w3.org/2000/svg">
<path d="M8.75 18.75H33.75C34.0815 18.75 34.3995 18.8817 34.6339 19.1161C34.8683 19.3505 35 19.6685 35 20C35 20.3315 34.8683 20.6495 34.6339 20.8839C34.3995 21.1183 34.0815 21.25 33.75 21.25H8.75C8.41848 21.25 8.10054 21.1183 7.86612 20.8839C7.6317 20.6495 7.5 20.3315 7.5 20C7.5 19.6685 7.6317 19.3505 7.86612 19.1161C8.10054 18.8817 8.41848 18.75 8.75 18.75Z" fill="#F4F6FB"/>
<path d="M9.26748 19.9996L19.635 30.3646C19.8697 30.5993 20.0016 30.9177 20.0016 31.2496C20.0016 31.5816 19.8697 31.8999 19.635 32.1346C19.4003 32.3693 19.0819 32.5012 18.75 32.5012C18.418 32.5012 18.0997 32.3693 17.865 32.1346L6.61498 20.8846C6.49857 20.7685 6.40621 20.6306 6.34319 20.4787C6.28018 20.3268 6.24774 20.164 6.24774 19.9996C6.24774 19.8352 6.28018 19.6724 6.34319 19.5205C6.40621 19.3687 6.49857 19.2307 6.61498 19.1146L17.865 7.86463C18.0997 7.62991 18.418 7.49805 18.75 7.49805C19.0819 7.49805 19.4003 7.62991 19.635 7.86463C19.8697 8.09934 20.0016 8.41769 20.0016 8.74963C20.0016 9.08157 19.8697 9.39991 19.635 9.63463L9.26748 19.9996Z" fill="#F4F6FB"/>
</svg>
