<svg width="224" height="38" viewBox="0 0 224 38" fill="none" xmlns="http://www.w3.org/2000/svg">
<path d="M2.64453 12.6016C2.42448 12.6354 2.23828 12.6608 2.08594 12.6777C1.93359 12.6947 1.80664 12.7031 1.70508 12.7031C1.12956 12.6693 0.723307 12.5085 0.486328 12.2207C0.249349 11.916 0.130859 11.4167 0.130859 10.7227C0.130859 9.35156 0.791016 8.48828 2.11133 8.13281C3.2793 7.86198 4.5319 7.66732 5.86914 7.54883C7.20638 7.41341 8.69596 7.3457 10.3379 7.3457C12.5384 7.3457 14.722 7.55729 16.8887 7.98047C19.0723 8.40365 21.1458 8.98763 23.1094 9.73242C25.0898 10.4603 26.9264 11.332 28.6191 12.3477C30.3118 13.3464 31.776 14.4382 33.0117 15.623C34.2643 16.791 35.2376 18.0267 35.9316 19.3301C36.6426 20.6165 36.998 21.9115 36.998 23.2148C36.998 24.5352 36.5495 25.7962 35.6523 26.998C34.7721 28.1829 33.5788 29.2324 32.0723 30.1465C30.5658 31.0605 28.8223 31.7884 26.8418 32.3301C24.8613 32.8717 22.7878 33.1426 20.6211 33.1426C18.8945 33.1426 17.0918 32.9818 15.2129 32.6602C13.334 32.3385 11.2604 31.8223 8.99219 31.1113C7.94271 30.8236 7.41797 30.1803 7.41797 29.1816C7.41797 28.9616 7.46875 28.7585 7.57031 28.5723C7.67188 28.3861 7.77344 28.2083 7.875 28.0391C7.99349 27.8698 8.10352 27.709 8.20508 27.5566C8.30664 27.3874 8.35742 27.2181 8.35742 27.0488C8.35742 26.084 8.30664 25.0514 8.20508 23.9512C8.12044 22.8509 7.99349 21.7507 7.82422 20.6504C7.67188 19.5501 7.48568 18.5007 7.26562 17.502C7.0625 16.4863 6.85091 15.5892 6.63086 14.8105C6.41081 14.0319 6.18229 13.4141 5.94531 12.957C5.72526 12.4831 5.52214 12.2461 5.33594 12.2461C5.04818 12.2461 4.69271 12.2799 4.26953 12.3477C3.86328 12.4154 3.32161 12.5 2.64453 12.6016ZM12.4199 12.1953C11.929 12.1953 11.6836 12.3646 11.6836 12.7031C11.6836 12.7878 11.709 12.9316 11.7598 13.1348C11.8105 13.3379 11.8867 13.6595 11.9883 14.0996C12.1406 14.8105 12.2845 15.5723 12.4199 16.3848C12.5553 17.1973 12.6908 18.1113 12.8262 19.127C12.9616 20.1257 13.0885 21.2513 13.207 22.5039C13.3424 23.7396 13.4779 25.1361 13.6133 26.6934C13.6302 26.9473 13.8587 27.1927 14.2988 27.4297C14.7389 27.6497 15.3229 27.8529 16.0508 28.0391C16.7786 28.2083 17.6081 28.3522 18.5391 28.4707C19.487 28.5723 20.4603 28.623 21.459 28.623C22.7793 28.623 24.0404 28.4707 25.2422 28.166C26.4609 27.8444 27.5273 27.4212 28.4414 26.8965C29.3724 26.3717 30.1087 25.7624 30.6504 25.0684C31.209 24.3743 31.4883 23.6549 31.4883 22.9102C31.4883 21.6745 30.9974 20.4727 30.0156 19.3047C29.0508 18.1367 27.7135 17.0788 26.0039 16.1309C24.2943 15.166 22.2799 14.3451 19.9609 13.668C17.6419 12.974 15.1283 12.4831 12.4199 12.1953ZM52.791 13.0078C52.1647 13.0078 51.6146 13.1771 51.1406 13.5156C50.6667 13.8372 50.2604 14.2943 49.9219 14.8867C49.5833 15.4622 49.304 16.1478 49.084 16.9434C48.8639 17.722 48.6862 18.5768 48.5508 19.5078C48.4154 20.4388 48.3223 21.4121 48.2715 22.4277C48.2207 23.4434 48.1953 24.4674 48.1953 25.5C48.1953 26.8542 48.2461 28.1914 48.3477 29.5117C48.4661 30.8151 48.5254 32.0254 48.5254 33.1426C48.5254 33.8704 48.2546 34.4375 47.7129 34.8438C47.1712 35.2669 46.401 35.4785 45.4023 35.4785C45.2161 35.4785 45.0046 35.4616 44.7676 35.4277C44.5306 35.3939 44.3021 35.3262 44.082 35.2246C43.8789 35.123 43.6927 34.9792 43.5234 34.793C43.3711 34.6237 43.2865 34.3867 43.2695 34.082C43.1172 32.5924 42.8971 31.069 42.6094 29.5117C42.3216 27.9544 41.9577 26.4056 41.5176 24.8652C41.0944 23.3079 40.5781 21.7676 39.9688 20.2441C39.3763 18.7207 38.6908 17.2311 37.9121 15.7754C37.7767 15.5215 37.6582 15.2845 37.5566 15.0645C37.472 14.8444 37.4297 14.6328 37.4297 14.4297C37.4297 14.1758 37.5397 13.9049 37.7598 13.6172C37.9967 13.3125 38.2845 13.0332 38.623 12.7793C38.9785 12.5254 39.3594 12.3223 39.7656 12.1699C40.1888 12.0007 40.5951 11.916 40.9844 11.916C41.6276 11.916 42.1947 12.3646 42.6855 13.2617C43.1764 14.1419 43.6335 15.5553 44.0566 17.502C44.1413 17.8405 44.209 18.0775 44.2598 18.2129C44.3105 18.3483 44.3783 18.416 44.4629 18.416C44.6491 18.416 44.7676 18.1283 44.8184 17.5527C45.0215 15.9447 45.3685 14.5651 45.8594 13.4141C46.3503 12.2461 46.9596 11.2897 47.6875 10.5449C48.4323 9.7832 49.2786 9.22461 50.2266 8.86914C51.1914 8.51367 52.2493 8.33594 53.4004 8.33594C54.0605 8.33594 54.7292 8.39518 55.4062 8.51367C56.0833 8.63216 56.6927 8.8099 57.2344 9.04688C57.776 9.28385 58.2161 9.57161 58.5547 9.91016C58.8932 10.2487 59.0625 10.6296 59.0625 11.0527C59.0625 11.3574 58.9948 11.7214 58.8594 12.1445C58.7409 12.5508 58.5801 12.9486 58.377 13.3379C58.1738 13.7103 57.9368 14.0319 57.666 14.3027C57.4121 14.5566 57.1497 14.6836 56.8789 14.6836C56.5742 14.6836 56.278 14.599 55.9902 14.4297C55.7025 14.2435 55.3893 14.0488 55.0508 13.8457C54.7292 13.6426 54.3822 13.4564 54.0098 13.2871C53.6543 13.1009 53.248 13.0078 52.791 13.0078ZM62.7949 23.0117C62.7949 25.2799 63.1419 27.0319 63.8359 28.2676C64.5299 29.5033 65.5371 30.1211 66.8574 30.1211C67.6868 30.1211 68.4486 29.8757 69.1426 29.3848C69.8535 28.8939 70.4629 28.2083 70.9707 27.3281C71.4785 26.4479 71.8678 25.4069 72.1387 24.2051C72.4264 22.9863 72.5703 21.666 72.5703 20.2441C72.5703 19.3809 72.5365 18.6361 72.4688 18.0098C72.401 17.3665 72.3249 16.7995 72.2402 16.3086C72.1725 15.8008 72.1048 15.3522 72.0371 14.9629C71.9694 14.5736 71.9355 14.2012 71.9355 13.8457C71.9355 13.304 72.1641 12.9147 72.6211 12.6777C73.0781 12.4238 73.806 12.2969 74.8047 12.2969C76.0742 12.2969 77.056 12.5846 77.75 13.1602C78.4609 13.7357 78.8164 14.5736 78.8164 15.6738C78.8164 18.6699 78.5202 21.3613 77.9277 23.748C77.3522 26.1348 76.5143 28.166 75.4141 29.8418C74.3307 31.5007 73.0104 32.7786 71.4531 33.6758C69.8958 34.5729 68.1523 35.0215 66.2227 35.0215C64.8516 35.0215 63.582 34.7337 62.4141 34.1582C61.263 33.5996 60.2643 32.8125 59.418 31.7969C58.5885 30.7643 57.9368 29.5456 57.4629 28.1406C56.9889 26.7188 56.752 25.1615 56.752 23.4688C56.752 22.8255 56.7689 22.14 56.8027 21.4121C56.8366 20.6842 56.8874 19.9056 56.9551 19.0762C57.0228 18.2298 57.1074 17.3158 57.209 16.334C57.3275 15.3522 57.4544 14.2858 57.5898 13.1348C57.6406 12.6439 57.8691 12.2546 58.2754 11.9668C58.6986 11.6621 59.2318 11.5098 59.875 11.5098C60.4505 11.5098 60.9922 11.569 61.5 11.6875C62.0078 11.806 62.4395 11.9668 62.7949 12.1699C63.1673 12.373 63.4551 12.61 63.6582 12.8809C63.8783 13.1517 63.9883 13.4395 63.9883 13.7441C63.9883 14.0488 63.9206 14.5312 63.7852 15.1914C63.6667 15.8346 63.5312 16.5794 63.3789 17.4258C63.2435 18.2552 63.1081 19.1608 62.9727 20.1426C62.8542 21.1074 62.7949 22.0638 62.7949 23.0117ZM84.1484 33.0918C84.0299 30.8405 83.8353 28.7669 83.5645 26.8711C83.3105 24.9583 83.0397 23.291 82.752 21.8691C82.4811 20.4473 82.2357 19.2962 82.0156 18.416C81.8125 17.5358 81.7109 16.9857 81.7109 16.7656C81.7109 16.444 81.8294 16.1309 82.0664 15.8262C82.3203 15.5215 82.6335 15.2591 83.0059 15.0391C83.3783 14.8021 83.776 14.6159 84.1992 14.4805C84.6393 14.3451 85.0371 14.2773 85.3926 14.2773C85.6803 14.2773 85.9258 14.3281 86.1289 14.4297C86.349 14.5312 86.5013 14.7005 86.5859 14.9375C86.6706 15.2253 86.7467 15.5299 86.8145 15.8516C86.8991 16.1562 86.9837 16.5286 87.0684 16.9688C87.1699 17.5951 87.3053 17.9082 87.4746 17.9082C87.6608 17.9082 87.8724 17.6289 88.1094 17.0703C88.4479 16.2917 88.8118 15.6484 89.2012 15.1406C89.5905 14.6328 90.0052 14.235 90.4453 13.9473C90.9023 13.6426 91.3678 13.431 91.8418 13.3125C92.3327 13.194 92.8405 13.1348 93.3652 13.1348C94.9564 13.1348 96.3021 13.7611 97.4023 15.0137C98.5195 16.2663 99.3913 18.0775 100.018 20.4473C100.102 20.7181 100.178 20.8958 100.246 20.9805C100.314 21.0482 100.39 21.082 100.475 21.082C100.559 21.082 100.644 21.0482 100.729 20.9805C100.83 20.8958 100.923 20.735 101.008 20.498C101.414 19.3978 101.888 18.4668 102.43 17.7051C102.971 16.9264 103.53 16.3001 104.105 15.8262C104.698 15.3353 105.299 14.9798 105.908 14.7598C106.518 14.5397 107.102 14.4297 107.66 14.4297C108.693 14.4297 109.624 14.8105 110.453 15.5723C111.299 16.3171 112.044 17.4766 112.688 19.0508C113.348 20.6081 113.915 22.5885 114.389 24.9922C114.88 27.3789 115.286 30.2142 115.607 33.498C115.607 34.4121 115.328 35.0469 114.77 35.4023C114.211 35.7747 113.449 35.9609 112.484 35.9609C111.858 35.9609 111.367 35.8255 111.012 35.5547C110.656 35.2839 110.453 34.9284 110.402 34.4883C110.182 32.1354 109.937 30.0449 109.666 28.2168C109.412 26.3717 109.133 24.8229 108.828 23.5703C108.523 22.3008 108.185 21.3359 107.812 20.6758C107.457 20.0156 107.059 19.6855 106.619 19.6855C106.399 19.6855 106.12 19.8464 105.781 20.168C105.46 20.4896 105.113 21.082 104.74 21.9453C104.368 22.7917 103.979 23.9596 103.572 25.4492C103.166 26.9219 102.777 28.8092 102.404 31.1113C102.303 31.7546 101.99 32.2454 101.465 32.584C100.957 32.9225 100.331 33.0918 99.5859 33.0918C98.7227 33.0918 98.1217 32.9564 97.7832 32.6855C97.4616 32.4147 97.2839 31.9577 97.25 31.3145C97.1823 30.1973 97.0638 29.0885 96.8945 27.9883C96.7422 26.8711 96.5475 25.8132 96.3105 24.8145C96.0736 23.7988 95.8112 22.8678 95.5234 22.0215C95.2357 21.1582 94.931 20.4134 94.6094 19.7871C94.2878 19.1439 93.9577 18.6445 93.6191 18.2891C93.2806 17.9336 92.9505 17.7559 92.6289 17.7559C92.2057 17.7559 91.791 18.0521 91.3848 18.6445C90.9954 19.237 90.64 20.0749 90.3184 21.1582C90.0137 22.2415 89.7682 23.5449 89.582 25.0684C89.3958 26.5918 89.3027 28.293 89.3027 30.1719C89.3027 30.4935 89.3112 30.8151 89.3281 31.1367C89.3451 31.4414 89.3535 31.763 89.3535 32.1016C89.3535 32.6094 89.2689 33.0241 89.0996 33.3457C88.9473 33.6673 88.7188 33.9212 88.4141 34.1074C88.1263 34.2936 87.7878 34.4206 87.3984 34.4883C87.0091 34.556 86.5859 34.5898 86.1289 34.5898C85.7057 34.5898 85.3672 34.556 85.1133 34.4883C84.8594 34.4375 84.6647 34.3529 84.5293 34.2344C84.3939 34.1159 84.3008 33.9551 84.25 33.752C84.1992 33.5658 84.1654 33.3457 84.1484 33.0918ZM125.129 9.96094C126.263 9.96094 127.431 10.1133 128.633 10.418C129.835 10.7057 130.935 11.0866 131.934 11.5605C132.932 12.0176 133.753 12.5339 134.396 13.1094C135.04 13.6849 135.361 14.2435 135.361 14.7852C135.361 15.056 135.243 15.3607 135.006 15.6992C134.769 16.0208 134.481 16.334 134.143 16.6387C133.804 16.9264 133.432 17.1719 133.025 17.375C132.636 17.5612 132.289 17.6543 131.984 17.6543C131.578 17.6543 131.121 17.485 130.613 17.1465C130.122 16.8079 129.572 16.4355 128.963 16.0293C128.37 15.6061 127.719 15.2253 127.008 14.8867C126.297 14.5482 125.527 14.3789 124.697 14.3789C124.156 14.3789 123.707 14.5143 123.352 14.7852C123.013 15.0391 122.844 15.403 122.844 15.877C122.844 16.3001 123.047 16.7318 123.453 17.1719C123.859 17.5951 124.393 18.0352 125.053 18.4922C125.73 18.9492 126.492 19.4316 127.338 19.9395C128.184 20.4473 129.048 20.9889 129.928 21.5645C130.825 22.14 131.697 22.7663 132.543 23.4434C133.389 24.1204 134.143 24.8568 134.803 25.6523C135.48 26.4479 136.021 27.3197 136.428 28.2676C136.834 29.1986 137.037 30.2142 137.037 31.3145C137.037 32.2624 136.868 33.1257 136.529 33.9043C136.191 34.6829 135.708 35.3516 135.082 35.9102C134.456 36.4688 133.711 36.9004 132.848 37.2051C131.984 37.5098 131.036 37.6621 130.004 37.6621C128.701 37.6621 127.499 37.459 126.398 37.0527C125.298 36.6634 124.35 36.1217 123.555 35.4277C122.759 34.7337 122.133 33.9043 121.676 32.9395C121.236 31.9746 121.016 30.9167 121.016 29.7656C121.016 28.276 121.278 27.1927 121.803 26.5156C122.344 25.8385 123.191 25.5 124.342 25.5C125.053 25.5 125.62 25.6354 126.043 25.9062C126.466 26.1771 126.678 26.5072 126.678 26.8965C126.678 27.0996 126.644 27.3112 126.576 27.5312C126.508 27.7344 126.432 27.9544 126.348 28.1914C126.28 28.4115 126.212 28.6484 126.145 28.9023C126.094 29.1562 126.068 29.4102 126.068 29.6641C126.068 30.1042 126.17 30.5273 126.373 30.9336C126.576 31.3398 126.847 31.6953 127.186 32C127.541 32.3216 127.947 32.5755 128.404 32.7617C128.861 32.9479 129.344 33.041 129.852 33.041C131.206 33.041 131.883 32.4824 131.883 31.3652C131.883 30.485 131.536 29.6556 130.842 28.877C130.148 28.0814 129.276 27.3112 128.227 26.5664C127.177 25.8047 126.043 25.043 124.824 24.2812C123.622 23.5195 122.497 22.724 121.447 21.8945C120.398 21.0651 119.526 20.1849 118.832 19.2539C118.138 18.306 117.791 17.2819 117.791 16.1816C117.791 15.2676 117.977 14.4297 118.35 13.668C118.739 12.9062 119.264 12.2546 119.924 11.7129C120.584 11.1543 121.354 10.7227 122.234 10.418C123.132 10.1133 124.096 9.96094 125.129 9.96094ZM155.369 21.5898C155.369 22.6055 155.615 23.5534 156.105 24.4336C156.613 25.2969 157.273 26.0586 158.086 26.7188C158.898 27.362 159.829 27.8698 160.879 28.2422C161.928 28.5977 163.003 28.7754 164.104 28.7754C164.442 28.7754 164.789 28.75 165.145 28.6992C165.5 28.6315 165.822 28.5215 166.109 28.3691C166.397 28.2168 166.634 28.0221 166.82 27.7852C167.007 27.5312 167.1 27.2181 167.1 26.8457C167.1 26.1348 166.846 25.4323 166.338 24.7383C165.847 24.0443 165.195 23.3587 164.383 22.6816C163.57 21.9876 162.639 21.3021 161.59 20.625C160.54 19.931 159.474 19.2454 158.391 18.5684C157.307 17.8913 156.241 17.2142 155.191 16.5371C154.142 15.8431 153.211 15.1576 152.398 14.4805C151.586 13.7865 150.926 13.0924 150.418 12.3984C149.927 11.6875 149.682 10.9766 149.682 10.2656C149.682 9.58854 149.851 8.96224 150.189 8.38672C150.545 7.79427 151.01 7.26107 151.586 6.78711C152.161 6.31315 152.83 5.88997 153.592 5.51758C154.354 5.14518 155.149 4.83203 155.979 4.57812C156.808 4.32422 157.637 4.13802 158.467 4.01953C159.313 3.88411 160.117 3.81641 160.879 3.81641C161.438 3.81641 162.047 3.83333 162.707 3.86719C163.384 3.88411 164.01 3.96029 164.586 4.0957C165.178 4.21419 165.669 4.40039 166.059 4.6543C166.448 4.9082 166.643 5.27214 166.643 5.74609C166.643 5.89844 166.617 6.0931 166.566 6.33008C166.516 6.55013 166.372 6.92253 166.135 7.44727C165.898 7.93815 165.618 8.31055 165.297 8.56445C164.992 8.80143 164.594 8.91992 164.104 8.91992C163.41 8.91992 162.673 8.84375 161.895 8.69141C161.133 8.52214 160.363 8.4375 159.584 8.4375C159.161 8.4375 158.729 8.46289 158.289 8.51367C157.866 8.54753 157.477 8.6237 157.121 8.74219C156.766 8.84375 156.478 9.00456 156.258 9.22461C156.038 9.42773 155.928 9.6901 155.928 10.0117C155.928 10.3333 156.156 10.6973 156.613 11.1035C157.087 11.5098 157.705 11.9583 158.467 12.4492C159.245 12.9401 160.126 13.4818 161.107 14.0742C162.089 14.6497 163.088 15.276 164.104 15.9531C165.136 16.6133 166.143 17.3242 167.125 18.0859C168.107 18.8307 168.979 19.6263 169.74 20.4727C170.519 21.3021 171.137 22.1823 171.594 23.1133C172.068 24.0443 172.305 25.0091 172.305 26.0078C172.305 27.2266 172.025 28.3014 171.467 29.2324C170.908 30.1634 170.189 30.9421 169.309 31.5684C168.428 32.1947 167.455 32.6602 166.389 32.9648C165.322 33.2865 164.281 33.4473 163.266 33.4473C162.233 33.4473 161.184 33.3203 160.117 33.0664C159.068 32.8294 158.052 32.4824 157.07 32.0254C156.089 31.5853 155.166 31.0521 154.303 30.4258C153.456 29.7826 152.72 29.0716 152.094 28.293C151.467 27.4974 150.968 26.6426 150.596 25.7285C150.24 24.8145 150.062 23.8581 150.062 22.8594C150.062 22.4362 150.088 22.013 150.139 21.5898C150.206 21.1497 150.316 20.7689 150.469 20.4473C150.621 20.1087 150.833 19.8379 151.104 19.6348C151.374 19.4147 151.721 19.3047 152.145 19.3047C152.28 19.3047 152.432 19.3216 152.602 19.3555C152.771 19.3724 153.067 19.4486 153.49 19.584C153.981 19.7363 154.413 19.9818 154.785 20.3203C155.174 20.6419 155.369 21.0651 155.369 21.5898ZM196.02 26.4395C196.51 26.0163 196.993 25.8047 197.467 25.8047C197.738 25.8047 197.983 25.8724 198.203 26.0078C198.423 26.1432 198.669 26.3548 198.939 26.6426C199.193 27.0319 199.371 27.3535 199.473 27.6074C199.591 27.8444 199.65 28.0814 199.65 28.3184C199.65 28.8262 199.396 29.3086 198.889 29.7656C198.076 30.4427 197.196 31.0521 196.248 31.5938C195.3 32.1185 194.31 32.5671 193.277 32.9395C192.245 33.3118 191.178 33.5911 190.078 33.7773C188.978 33.9805 187.886 34.082 186.803 34.082C185.432 34.082 184.145 33.9043 182.943 33.5488C181.742 33.2103 180.667 32.7194 179.719 32.0762C178.788 31.4329 178.001 30.6628 177.357 29.7656C176.714 28.8516 176.257 27.8275 175.986 26.6934C175.834 26.2194 175.69 25.9147 175.555 25.7793C175.436 25.627 175.233 25.5508 174.945 25.5508C174.319 25.5508 173.837 25.3984 173.498 25.0938C173.16 24.7891 172.99 24.349 172.99 23.7734C172.99 23.5365 173.007 23.3841 173.041 23.3164L173.092 22.8086C173.176 22.1992 173.337 21.7591 173.574 21.4883C173.828 21.2174 174.217 21.082 174.742 21.082H175.123C175.834 21.082 176.333 20.752 176.621 20.0918C177.146 18.9238 177.814 17.8574 178.627 16.8926C179.439 15.9277 180.354 15.1068 181.369 14.4297C182.385 13.7357 183.468 13.2025 184.619 12.8301C185.787 12.4408 186.972 12.2461 188.174 12.2461C189.426 12.2461 190.594 12.4323 191.678 12.8047C192.778 13.1602 193.734 13.6595 194.547 14.3027C195.359 14.946 195.994 15.6992 196.451 16.5625C196.925 17.4258 197.162 18.3568 197.162 19.3555C197.162 20.0495 197.027 20.6842 196.756 21.2598C196.485 21.8353 196.096 22.3431 195.588 22.7832C195.08 23.2064 194.462 23.5534 193.734 23.8242C193.023 24.0951 192.211 24.2728 191.297 24.3574L182.486 25.2461C182.148 25.2461 181.868 25.3307 181.648 25.5C181.445 25.6693 181.344 25.8978 181.344 26.1855C181.344 26.6257 181.505 27.0488 181.826 27.4551C182.165 27.8613 182.605 28.2253 183.146 28.5469C183.705 28.8516 184.34 29.097 185.051 29.2832C185.779 29.4694 186.523 29.5625 187.285 29.5625C188.013 29.5625 188.758 29.4948 189.52 29.3594C190.298 29.207 191.06 28.9954 191.805 28.7246C192.566 28.4538 193.303 28.1322 194.014 27.7598C194.725 27.3704 195.393 26.9303 196.02 26.4395ZM190.357 19.8887C190.611 19.8379 190.831 19.7194 191.018 19.5332C191.204 19.3301 191.297 19.0846 191.297 18.7969C191.297 18.543 191.204 18.306 191.018 18.0859C190.831 17.8659 190.577 17.6712 190.256 17.502C189.934 17.3158 189.562 17.1719 189.139 17.0703C188.715 16.9688 188.267 16.918 187.793 16.918C187.099 16.918 186.388 17.0195 185.66 17.2227C184.932 17.4258 184.272 17.6966 183.68 18.0352C183.087 18.3568 182.605 18.7207 182.232 19.127C181.86 19.5163 181.674 19.9056 181.674 20.2949C181.674 20.6842 181.911 20.8789 182.385 20.8789C182.673 20.8789 183.138 20.8451 183.781 20.7773C184.424 20.7096 185.135 20.6335 185.914 20.5488C186.693 20.4473 187.48 20.3372 188.275 20.2188C189.071 20.1003 189.765 19.9902 190.357 19.8887ZM203.637 2.67383C203.637 1.77669 203.891 1.15039 204.398 0.794922C204.906 0.422526 205.744 0.236328 206.912 0.236328C207.335 0.236328 207.691 0.278646 207.979 0.363281C208.283 0.43099 208.537 0.566406 208.74 0.769531C208.96 0.972656 209.13 1.24349 209.248 1.58203C209.383 1.90365 209.493 2.31836 209.578 2.82617C209.781 4.40039 210.001 6.02539 210.238 7.70117C210.492 9.37695 210.755 11.0612 211.025 12.7539C211.127 13.5156 211.525 13.8965 212.219 13.8965C212.405 13.8965 212.71 13.8796 213.133 13.8457C213.573 13.7949 214.089 13.7441 214.682 13.6934C215.274 13.6257 215.909 13.5579 216.586 13.4902C217.28 13.4225 217.965 13.3633 218.643 13.3125C219.337 13.2448 219.988 13.194 220.598 13.1602C221.224 13.1094 221.774 13.084 222.248 13.084C222.62 13.084 222.917 13.1602 223.137 13.3125C223.357 13.4479 223.526 13.6341 223.645 13.8711C223.78 14.0911 223.865 14.3451 223.898 14.6328C223.949 14.9036 223.975 15.1829 223.975 15.4707C223.975 15.7246 223.924 15.987 223.822 16.2578C223.738 16.5286 223.611 16.7741 223.441 16.9941C223.289 17.1973 223.094 17.3665 222.857 17.502C222.62 17.6374 222.35 17.7051 222.045 17.7051C220.572 17.7051 219.083 17.7559 217.576 17.8574C216.087 17.9421 214.597 18.0605 213.107 18.2129C212.346 18.3145 211.965 18.6953 211.965 19.3555C211.965 19.4062 211.973 19.474 211.99 19.5586C212.007 19.6263 212.016 19.6855 212.016 19.7363C212.219 21.209 212.405 22.5885 212.574 23.875C212.76 25.1615 212.913 26.3125 213.031 27.3281C213.167 28.3268 213.268 29.1647 213.336 29.8418C213.421 30.502 213.463 30.9421 213.463 31.1621C213.463 31.7715 213.404 32.2793 213.285 32.6855C213.167 33.1087 212.972 33.4473 212.701 33.7012C212.43 33.972 212.066 34.1582 211.609 34.2598C211.169 34.3783 210.611 34.4375 209.934 34.4375C209.29 34.4375 208.816 34.2852 208.512 33.9805C208.207 33.6758 208.038 33.2103 208.004 32.584C207.902 30.5866 207.742 28.5807 207.521 26.5664C207.301 24.5352 207.048 22.5124 206.76 20.498C206.607 19.7702 206.227 19.4062 205.617 19.4062C205.566 19.4062 205.507 19.4147 205.439 19.4316C205.372 19.4486 205.312 19.457 205.262 19.457C204.212 19.694 203.222 19.931 202.291 20.168C201.36 20.4049 200.488 20.6589 199.676 20.9297C199.219 21.082 198.812 21.1921 198.457 21.2598C198.102 21.3105 197.78 21.3359 197.492 21.3359C197.103 21.3359 196.815 21.1667 196.629 20.8281C196.443 20.4727 196.35 20.0326 196.35 19.5078C196.35 19.3216 196.367 19.11 196.4 18.873C196.434 18.6191 196.502 18.3737 196.604 18.1367C196.688 17.8828 196.824 17.6543 197.01 17.4512C197.179 17.2311 197.416 17.0534 197.721 16.918C198.432 16.6302 199.38 16.334 200.564 16.0293C201.749 15.7077 203.087 15.4115 204.576 15.1406C204.915 15.056 205.177 14.9206 205.363 14.7344C205.566 14.5312 205.668 14.235 205.668 13.8457C205.668 13.7611 205.668 13.6764 205.668 13.5918C205.668 13.4902 205.651 13.3887 205.617 13.2871C205.346 11.7298 205.084 10.3164 204.83 9.04688C204.593 7.76042 204.382 6.66016 204.195 5.74609C204.026 4.83203 203.891 4.11263 203.789 3.58789C203.688 3.06315 203.637 2.75846 203.637 2.67383Z" fill="#F4F6FB"/>
</svg>
