<svg width="60" height="60" viewBox="0 0 60 60" fill="none" xmlns="http://www.w3.org/2000/svg">
<path d="M5 15C5 10.286 5 7.92892 6.46447 6.46447C7.92892 5 10.286 5 15 5C19.7141 5 22.0711 5 23.5355 6.46447C25 7.92892 25 10.286 25 15V45C25 49.714 25 52.071 23.5355 53.5355C22.0711 55 19.7141 55 15 55C10.286 55 7.92892 55 6.46447 53.5355C5 52.071 5 49.714 5 45V15Z" fill="#F4F6FB"/>
<path opacity="0.5" d="M35 15C35 10.286 35 7.92892 36.4645 6.46447C37.929 5 40.286 5 45 5C49.714 5 52.071 5 53.5355 6.46447C55 7.92892 55 10.286 55 15V45C55 49.714 55 52.071 53.5355 53.5355C52.071 55 49.714 55 45 55C40.286 55 37.929 55 36.4645 53.5355C35 52.071 35 49.714 35 45V15Z" fill="#F4F6FB"/>
</svg>
