<svg width="200" height="200" viewBox="0 0 200 200" fill="none" xmlns="http://www.w3.org/2000/svg">
<g clip-path="url(#clip0_105_523)">
<path d="M131.26 19.4799C131.26 13.9864 125.109 13.9864 122.376 14.6731C126.202 11.6516 130.691 12.3842 132.285 13.2997L169.244 31.4217C172.765 33.1484 174.999 36.7413 174.999 40.6786V159.894C174.999 163.884 172.706 167.516 169.112 169.214L134.336 185.659C131.943 186.688 126.749 189.229 122.376 185.658C127.843 186.689 130.804 182.798 131.26 180.165V19.4799Z" fill="url(#paint0_linear_105_523)"/>
<path d="M122.82 14.5741C125.721 14.0008 131.261 14.2667 131.261 19.4801V60.5156L19.2099 145.283C17.2514 146.765 14.495 146.519 12.8268 144.714L1.27833 132.217C-0.530849 130.26 -0.404265 127.195 1.56015 125.395L122.376 14.6732L122.82 14.5741Z" fill="url(#paint1_linear_105_523)"/>
<path d="M131.261 139.817L19.2099 55.0498C17.2514 53.5681 14.495 53.814 12.8268 55.6191L1.27833 68.1154C-0.530849 70.0729 -0.404265 73.1373 1.56015 74.9379L122.376 185.66C127.844 186.69 130.806 182.799 131.261 180.166V139.817Z" fill="url(#paint2_linear_105_523)"/>
</g>
<defs>
<linearGradient id="paint0_linear_105_523" x1="148.687" y1="12.5" x2="148.687" y2="187.5" gradientUnits="userSpaceOnUse">
<stop stop-color="#32B5F1"/>
<stop offset="1" stop-color="#2B9FED"/>
</linearGradient>
<linearGradient id="paint1_linear_105_523" x1="131.261" y1="34.5871" x2="6.38563" y2="139.407" gradientUnits="userSpaceOnUse">
<stop stop-color="#0F6FB3"/>
<stop offset="0.270551" stop-color="#1279B7"/>
<stop offset="0.421376" stop-color="#1176B5"/>
<stop offset="0.618197" stop-color="#0E69AC"/>
<stop offset="0.855344" stop-color="#0F70AF"/>
<stop offset="1" stop-color="#0F6DAD"/>
</linearGradient>
<linearGradient id="paint2_linear_105_523" x1="7.22013" y1="62.3991" x2="131.744" y2="165.505" gradientUnits="userSpaceOnUse">
<stop stop-color="#1791D2"/>
<stop offset="1" stop-color="#1173C5"/>
</linearGradient>
<clipPath id="clip0_105_523">
<rect width="200" height="200" fill="white"/>
</clipPath>
</defs>
</svg>
